2nd race race for the cup at Phoenix International Raceway. Thanks for all the good feedback from the Daytona race. I stepped up the bitrate and think this is a good copy, enjoy and seed the need.

General
Complete name                    : NASCAR 2011 Pheonix  Subway Fresh Fit 500 HDTV_JHW.mp4
Format                           : MPEG-4
Format profile                   : Base Media / Version 2
Codec ID                         : mp42
File size                        : 1.69 GiB
Duration                         : 2h 54mn
Overall bit rate                 : 1 394 Kbps
Encoded date                     : UTC 2011-02-27 03:57:18
Tagged date                      : UTC 2011-02-27 03:57:18
Writing library                  : AVS 

Video
ID                               : 1
Format                           : AVC
Format/Info                      : Advanced Video Codec
Format profile                   : Main@L5.1
Format settings, CABAC           : Yes
Format settings, ReFrames        : 2 frames
Codec ID                         : avc1
Codec ID/Info                    : Advanced Video Coding
Duration                         : 2h 54mn
Bit rate mode                    : Variable
Bit rate                         : 1 196 Kbps
Width                            : 720 pixels
Height                           : 400 pixels
Display aspect ratio             : 16:9
Frame rate mode                  : Constant
Frame rate                       : 29.970 fps
Color space                      : YUV
Chroma subsampling               : 4:2:0
Bit depth                        : 8 bits
Scan type                        : Progressive
Bits/(Pixel*Frame)               : 0.139
Stream size                      : 1.45 GiB (86%)
Language                         : English
Encoded date                     : UTC 2011-02-27 03:57:18
Tagged date                      : UTC 2011-02-27 03:57:18

Audio
ID                               : 2
Format                           : AAC
Format/Info                      : Advanced Audio Codec
Format profile                   : LC
Codec ID                         : 40
Duration                         : 2h 54mn
Bit rate mode                    : Constant
Bit rate                         : 192 Kbps
Channel(s)                       : 2 channels
Channel positions                : Front: L R
Sampling rate                    : 48.0 KHz
Compression mode                 : Lossy
Stream size                      : 236 MiB (14%)
Language                         : English
Encoded date                     : UTC 2011-02-27 03:57:19
Tagged date                      : UTC 2011-02-27 03:57:19

[img]http://img28.imageshack.us/img28/2972/vlcsnap2011022723h01m39.png[/img]

[img]http://img84.imageshack.us/img84/9347/vlcsnap2011022723h01m54.png[/img]

[img]http://img535.imageshack.us/img535/8558/vlcsnap2011022723h02m39.png[/img]

[img]http://img402.imageshack.us/img402/2913/vlcsnap2011022723h02m49.png[/img]

[img]http://img130.imageshack.us/img130/9605/vlcsnap2011022723h03m18.png[/img]

[img]http://img580.imageshack.us/img580/408/vlcsnap2011022723h03m20.png[/img]

[img]http://img132.imageshack.us/img132/9770/vlcsnap2011022723h04m05.png[/img]